<mxfile host="app.diagrams.net" modified="2023-05-27T19:13:43.977Z" agent="Mozilla/5.0 (Macintosh; Intel Mac OS X 10_15_7) AppleWebKit/537.36 (KHTML, like Gecko) Chrome/113.0.0.0 Safari/537.36" etag="p4WIgS_gY63Ud6YtHGQk" version="21.3.2" type="device">
  <diagram name="Page-1" id="eCLdaKHtsYUsxIOqptAW">
    <mxGraphModel dx="1026" dy="517" grid="1" gridSize="10" guides="1" tooltips="1" connect="1" arrows="1" fold="1" page="1" pageScale="1" pageWidth="827" pageHeight="1169" math="0" shadow="0">
      <root>
        <mxCell id="0" />
        <mxCell id="1" parent="0" />
        <mxCell id="74_P7XHMT88nmDnyV9xz-1" value="AWS Account" style="points=[[0,0],[0.25,0],[0.5,0],[0.75,0],[1,0],[1,0.25],[1,0.5],[1,0.75],[1,1],[0.75,1],[0.5,1],[0.25,1],[0,1],[0,0.75],[0,0.5],[0,0.25]];outlineConnect=0;gradientColor=none;html=1;whiteSpace=wrap;fontSize=12;fontStyle=0;container=1;pointerEvents=0;collapsible=0;recursiveResize=0;shape=mxgraph.aws4.group;grIcon=mxgraph.aws4.group_account;strokeColor=#CD2264;fillColor=none;verticalAlign=top;align=left;spacingLeft=30;fontColor=#CD2264;dashed=0;" vertex="1" parent="1">
          <mxGeometry x="40" y="40" width="580" height="370" as="geometry" />
        </mxCell>
        <mxCell id="74_P7XHMT88nmDnyV9xz-4" value="" style="edgeStyle=orthogonalEdgeStyle;rounded=0;orthogonalLoop=1;jettySize=auto;html=1;" edge="1" parent="74_P7XHMT88nmDnyV9xz-1" source="74_P7XHMT88nmDnyV9xz-2" target="74_P7XHMT88nmDnyV9xz-3">
          <mxGeometry relative="1" as="geometry" />
        </mxCell>
        <mxCell id="74_P7XHMT88nmDnyV9xz-6" value="&quot;A resource is&lt;br&gt;not compliant&quot;" style="edgeLabel;html=1;align=center;verticalAlign=middle;resizable=0;points=[];" vertex="1" connectable="0" parent="74_P7XHMT88nmDnyV9xz-4">
          <mxGeometry x="-0.1059" y="4" relative="1" as="geometry">
            <mxPoint x="-1" y="4" as="offset" />
          </mxGeometry>
        </mxCell>
        <mxCell id="74_P7XHMT88nmDnyV9xz-2" value="AWS Config" style="outlineConnect=0;dashed=0;verticalLabelPosition=bottom;verticalAlign=top;align=center;html=1;shape=mxgraph.aws3.config;fillColor=#759C3E;gradientColor=none;" vertex="1" parent="74_P7XHMT88nmDnyV9xz-1">
          <mxGeometry x="40" y="70" width="76.5" height="93" as="geometry" />
        </mxCell>
        <mxCell id="74_P7XHMT88nmDnyV9xz-10" value="EventBridge&lt;br&gt;rule" style="edgeStyle=orthogonalEdgeStyle;rounded=0;orthogonalLoop=1;jettySize=auto;html=1;" edge="1" parent="74_P7XHMT88nmDnyV9xz-1" source="74_P7XHMT88nmDnyV9xz-3" target="74_P7XHMT88nmDnyV9xz-8">
          <mxGeometry relative="1" as="geometry">
            <mxPoint as="offset" />
          </mxGeometry>
        </mxCell>
        <mxCell id="74_P7XHMT88nmDnyV9xz-3" value="Default EventBridge&lt;br&gt;event bus" style="sketch=0;points=[[0,0,0],[0.25,0,0],[0.5,0,0],[0.75,0,0],[1,0,0],[0,1,0],[0.25,1,0],[0.5,1,0],[0.75,1,0],[1,1,0],[0,0.25,0],[0,0.5,0],[0,0.75,0],[1,0.25,0],[1,0.5,0],[1,0.75,0]];outlineConnect=0;fontColor=#232F3E;gradientColor=#FF4F8B;gradientDirection=north;fillColor=#BC1356;strokeColor=#ffffff;dashed=0;verticalLabelPosition=bottom;verticalAlign=top;align=center;html=1;fontSize=12;fontStyle=0;aspect=fixed;shape=mxgraph.aws4.resourceIcon;resIcon=mxgraph.aws4.eventbridge;" vertex="1" parent="74_P7XHMT88nmDnyV9xz-1">
          <mxGeometry x="240" y="77.5" width="78" height="78" as="geometry" />
        </mxCell>
        <mxCell id="74_P7XHMT88nmDnyV9xz-13" value="Lookup tags" style="edgeStyle=orthogonalEdgeStyle;rounded=0;orthogonalLoop=1;jettySize=auto;html=1;strokeColor=#D6D6D6;" edge="1" parent="74_P7XHMT88nmDnyV9xz-1" source="74_P7XHMT88nmDnyV9xz-8" target="74_P7XHMT88nmDnyV9xz-12">
          <mxGeometry x="0.6552" relative="1" as="geometry">
            <mxPoint as="offset" />
          </mxGeometry>
        </mxCell>
        <mxCell id="74_P7XHMT88nmDnyV9xz-15" value="Add comment" style="edgeStyle=orthogonalEdgeStyle;rounded=0;orthogonalLoop=1;jettySize=auto;html=1;" edge="1" parent="74_P7XHMT88nmDnyV9xz-1" source="74_P7XHMT88nmDnyV9xz-8" target="74_P7XHMT88nmDnyV9xz-14">
          <mxGeometry relative="1" as="geometry" />
        </mxCell>
        <mxCell id="74_P7XHMT88nmDnyV9xz-17" value="Get auth token" style="edgeStyle=orthogonalEdgeStyle;rounded=0;orthogonalLoop=1;jettySize=auto;html=1;entryX=0.5;entryY=0;entryDx=0;entryDy=0;entryPerimeter=0;strokeColor=#D6D6D6;" edge="1" parent="74_P7XHMT88nmDnyV9xz-1" source="74_P7XHMT88nmDnyV9xz-8" target="74_P7XHMT88nmDnyV9xz-16">
          <mxGeometry x="0.662" y="-2" relative="1" as="geometry">
            <Array as="points">
              <mxPoint x="479" y="213" />
              <mxPoint x="542" y="213" />
            </Array>
            <mxPoint as="offset" />
          </mxGeometry>
        </mxCell>
        <mxCell id="74_P7XHMT88nmDnyV9xz-8" value="Notification Lambda&lt;br&gt;function" style="sketch=0;points=[[0,0,0],[0.25,0,0],[0.5,0,0],[0.75,0,0],[1,0,0],[0,1,0],[0.25,1,0],[0.5,1,0],[0.75,1,0],[1,1,0],[0,0.25,0],[0,0.5,0],[0,0.75,0],[1,0.25,0],[1,0.5,0],[1,0.75,0]];outlineConnect=0;fontColor=#232F3E;gradientColor=#F78E04;gradientDirection=north;fillColor=#D05C17;strokeColor=#ffffff;dashed=0;verticalLabelPosition=bottom;verticalAlign=top;align=center;html=1;fontSize=12;fontStyle=0;aspect=fixed;shape=mxgraph.aws4.resourceIcon;resIcon=mxgraph.aws4.lambda;" vertex="1" parent="74_P7XHMT88nmDnyV9xz-1">
          <mxGeometry x="440" y="77.5" width="78" height="78" as="geometry" />
        </mxCell>
        <mxCell id="74_P7XHMT88nmDnyV9xz-12" value="AWS Config" style="outlineConnect=0;dashed=0;verticalLabelPosition=bottom;verticalAlign=top;align=center;html=1;shape=mxgraph.aws3.config;fillColor=#759C3E;gradientColor=none;" vertex="1" parent="74_P7XHMT88nmDnyV9xz-1">
          <mxGeometry x="398.87" y="270" width="41.13" height="50" as="geometry" />
        </mxCell>
        <mxCell id="74_P7XHMT88nmDnyV9xz-14" value="GitHub" style="dashed=0;outlineConnect=0;html=1;align=center;labelPosition=center;verticalLabelPosition=bottom;verticalAlign=top;shape=mxgraph.weblogos.github" vertex="1" parent="74_P7XHMT88nmDnyV9xz-1">
          <mxGeometry x="640" y="79" width="75" height="75" as="geometry" />
        </mxCell>
        <mxCell id="74_P7XHMT88nmDnyV9xz-16" value="Secrets&lt;br&gt;Manager" style="sketch=0;points=[[0,0,0],[0.25,0,0],[0.5,0,0],[0.75,0,0],[1,0,0],[0,1,0],[0.25,1,0],[0.5,1,0],[0.75,1,0],[1,1,0],[0,0.25,0],[0,0.5,0],[0,0.75,0],[1,0.25,0],[1,0.5,0],[1,0.75,0]];outlineConnect=0;fontColor=#232F3E;gradientColor=#F54749;gradientDirection=north;fillColor=#C7131F;strokeColor=#ffffff;dashed=0;verticalLabelPosition=bottom;verticalAlign=top;align=center;html=1;fontSize=12;fontStyle=0;aspect=fixed;shape=mxgraph.aws4.resourceIcon;resIcon=mxgraph.aws4.secrets_manager;" vertex="1" parent="74_P7XHMT88nmDnyV9xz-1">
          <mxGeometry x="518" y="270" width="48" height="48" as="geometry" />
        </mxCell>
      </root>
    </mxGraphModel>
  </diagram>
</mxfile>
